<svg width="100" height="100" viewBox="0 0 100 100" fill="none" xmlns="http://www.w3.org/2000/svg">
  <circle cx="50" cy="50" r="48" fill="url(#grad15a)" opacity="0.1"/>
  <circle cx="50" cy="50" r="40" stroke="url(#grad15b)" stroke-width="1" opacity="0.3" fill="none"/>
  <g transform="translate(50, 45)">
    <circle cx="0" cy="-3" r="10" fill="white"/>
    <circle cx="-6" cy="-9" r="4" fill="white"/>
    <circle cx="6" cy="-9" r="4" fill="white"/>
    <ellipse cx="0" cy="6" rx="11" ry="8" fill="white"/>
    <ellipse cx="-8" cy="4" rx="4" ry="6" fill="white" transform="rotate(-15 -8 4)"/>
    <ellipse cx="8" cy="4" rx="4" ry="6" fill="white" transform="rotate(15 8 4)"/>
    <circle cx="-3.5" cy="-3" r="1.8" fill="#1F53FF"/>
    <circle cx="3.5" cy="-3" r="1.8" fill="#1F53FF"/>
  </g>
  <g transform="translate(70, 30)">
    <circle cx="0" cy="0" r="18" fill="url(#grad15c)"/>
    <circle cx="0" cy="0" r="16" fill="#1F53FF"/>
    <rect x="-2" y="-10" width="4" height="20" rx="2" fill="white"/>
    <rect x="-10" y="-2" width="20" height="4" rx="2" fill="white"/>
  </g>
  <g opacity="0.6">
    <path d="M20 25 L20 30 M17.5 27.5 L22.5 27.5" stroke="#1F53FF" stroke-width="2" stroke-linecap="round"/>
    <path d="M85 70 L85 75 M82.5 72.5 L87.5 72.5" stroke="#1F53FF" stroke-width="2" stroke-linecap="round"/>
    <path d="M15 60 L15 65 M12.5 62.5 L17.5 62.5" stroke="#1F53FF" stroke-width="2" stroke-linecap="round"/>
  </g>
  <circle cx="50" cy="50" r="35" stroke="#1F53FF" stroke-width="2" stroke-dasharray="5 5" opacity="0.3" fill="none"/>
  <g transform="translate(50, 75)">
    <rect x="-15" y="-5" width="30" height="10" rx="5" fill="#1F53FF"/>
    <text x="0" y="1" text-anchor="middle" fill="white" font-size="6" font-family="sans-serif" font-weight="bold">NEW</text>
  </g>
  <defs>
    <linearGradient id="grad15a" x1="2" y1="2" x2="98" y2="98" gradientUnits="userSpaceOnUse">
      <stop offset="0%" stop-color="#1F53FF"/>
      <stop offset="100%" stop-color="#1F53FF"/>
    </linearGradient>
    <linearGradient id="grad15b" x1="10" y1="10" x2="90" y2="90" gradientUnits="userSpaceOnUse">
      <stop offset="0%" stop-color="#1F53FF"/>
      <stop offset="100%" stop-color="#1F53FF"/>
    </linearGradient>
    <linearGradient id="grad15c" x1="52" y1="12" x2="88" y2="48" gradientUnits="userSpaceOnUse">
      <stop offset="0%" stop-color="#1F53FF"/>
      <stop offset="100%" stop-color="#1F53FF"/>
    </linearGradient>
  </defs>
</svg>