<svg width="100" height="100" viewBox="0 0 100 100" fill="none" xmlns="http://www.w3.org/2000/svg">
  <rect x="10" y="20" width="80" height="70" rx="8" fill="url(#grad7a)"/>
  <rect x="10" y="20" width="80" height="10" rx="8" fill="#1E293B"/>
  <circle cx="18" cy="25" r="2" fill="#EF4444"/>
  <circle cx="25" cy="25" r="2" fill="#F59E0B"/>
  <circle cx="32" cy="25" r="2" fill="#10B981"/>
  <g transform="translate(50, 58)">
    <circle cx="0" cy="-5" r="12" fill="white"/>
    <circle cx="-7" cy="-13" r="5" fill="white"/>
    <circle cx="7" cy="-13" r="5" fill="white"/>
    <ellipse cx="0" cy="6" rx="13" ry="10" fill="white"/>
    <ellipse cx="-10" cy="3" rx="5" ry="7" fill="white" transform="rotate(-15 -10 3)"/>
    <ellipse cx="10" cy="3" rx="5" ry="7" fill="white" transform="rotate(15 10 3)"/>
    <circle cx="-4" cy="-5" r="2" fill="#1D4ED8"/>
    <circle cx="4" cy="-5" r="2" fill="#1D4ED8"/>
  </g>
  <rect x="20" y="38" width="2" height="8" fill="#60A5FA" opacity="0.8">
    <animate attributeName="opacity" values="0;1;0" dur="1s" repeatCount="indefinite"/>
  </rect>
  <defs>
    <linearGradient id="grad7a" x1="10" y1="30" x2="90" y2="90">
      <stop offset="0%" stop-color="#0F172A"/>
      <stop offset="100%" stop-color="#1E293B"/>
    </linearGradient>
  </defs>
</svg>