<svg width="100" height="100" viewBox="0 0 100 100" fill="none" xmlns="http://www.w3.org/2000/svg">
  <rect x="25" y="35" width="60" height="50" rx="6" fill="#1E3A8A" opacity="0.6"/>
  <rect x="25" y="35" width="60" height="8" rx="6" fill="#1E40AF"/>
  <rect x="20" y="25" width="60" height="50" rx="6" fill="#1D4ED8" opacity="0.8"/>
  <rect x="20" y="25" width="60" height="8" rx="6" fill="#2563EB"/>
  <rect x="15" y="15" width="60" height="50" rx="6" fill="url(#gradient3a)"/>
  <rect x="15" y="15" width="60" height="8" rx="6" fill="#3B82F6"/>
  <circle cx="20" cy="19" r="1.5" fill="white" opacity="0.8"/>
  <circle cx="25" cy="19" r="1.5" fill="white" opacity="0.8"/>
  <circle cx="30" cy="19" r="1.5" fill="white" opacity="0.8"/>
  <path d="M35 35L28 42L35 49" stroke="white" stroke-width="3" stroke-linecap="round" stroke-linejoin="round"/>
  <path d="M45 35L52 42L45 49" stroke="white" stroke-width="3" stroke-linecap="round" stroke-linejoin="round"/>
  <line x1="58" y1="35" x2="58" y2="49" stroke="#60A5FA" stroke-width="2" stroke-linecap="round"/>
  <circle cx="68" cy="23" r="10" fill="#60A5FA"/>
  <text x="68" y="27" text-anchor="middle" fill="white" font-size="10" font-weight="bold">AI</text>
  <defs>
    <linearGradient id="gradient3a" x1="15" y1="15" x2="75" y2="65" gradientUnits="userSpaceOnUse">
      <stop offset="0%" stop-color="#3B82F6"/>
      <stop offset="100%" stop-color="#2563EB"/>
    </linearGradient>
  </defs>
</svg>